<svg width="1920" height="1080" viewBox="0 0 1920 1080" fill="none" xmlns="http://www.w3.org/2000/svg">
<g clip-path="url(#clip0_32_2)">
<rect width="1920" height="1080" fill="white"/>
<path d="M1920 1080V0" stroke="#E8ECF3" stroke-width="2"/>
<path d="M1820 1080V0" stroke="#E8ECF3" stroke-width="2"/>
<path d="M1720 1080V0" stroke="#E8ECF3" stroke-width="2"/>
<path d="M1620 1080V0" stroke="#E8ECF3" stroke-width="2"/>
<path d="M1520 1080V0" stroke="#E8ECF3" stroke-width="2"/>
<path d="M1420 1080V0" stroke="#E8ECF3" stroke-width="2"/>
<path d="M1320 1080V0" stroke="#E8ECF3" stroke-width="2"/>
<path d="M1220 1080V0" stroke="#E8ECF3" stroke-width="2"/>
<path d="M1120 1080V0" stroke="#E8ECF3" stroke-width="2"/>
<path d="M1020 1080V0" stroke="#E8ECF3" stroke-width="2"/>
<path d="M2020 80L935 80" stroke="#E8ECF3" stroke-width="2"/>
<path d="M2020 180L935 180" stroke="#E8ECF3" stroke-width="2"/>
<path d="M2020 280L935 280" stroke="#E8ECF3" stroke-width="2"/>
<path d="M2020 380L935 380" stroke="#E8ECF3" stroke-width="2"/>
<path d="M2020 480L935 480" stroke="#E8ECF3" stroke-width="2"/>
<path d="M2020 580L935 580" stroke="#E8ECF3" stroke-width="2"/>
<path d="M2020 680L935 680" stroke="#E8ECF3" stroke-width="2"/>
<path d="M2020 780L935 780" stroke="#E8ECF3" stroke-width="2"/>
<path d="M2020 880L935 880" stroke="#E8ECF3" stroke-width="2"/>
<path d="M2020 980L935 980" stroke="#E8ECF3" stroke-width="2"/>
<rect x="1520" y="480" width="100" height="100" fill="#D6D6FF"/>
<rect x="1520" y="380" width="100" height="100" fill="#A3A3FF"/>
<rect x="1620" y="480" width="100" height="100" fill="#A3A3FF"/>
<rect x="1520" y="580" width="100" height="100" fill="#7A7AFF"/>
<rect x="1420" y="480" width="100" height="100" fill="#7A7AFF"/>
<rect x="1420" y="580" width="100" height="100" fill="#5A5AFF"/>
<rect x="1320" y="480" width="100" height="100" fill="#5A5AFF"/>
<rect x="1320" y="380" width="100" height="100" fill="#5A5AFF"/>
<rect x="1320" y="580" width="100" height="100" fill="#3B3BFF"/>
<rect x="1220" y="480" width="100" height="100" fill="#3B3BFF"/>
<rect x="1420" y="680" width="100" height="100" fill="#3B3BFF"/>
<g filter="url(#filter0_f_32_2)">
<path d="M2020 -75L2016.6 1134H781V-75H2020ZM1101 539.5L1010.5 698.5L1216 799V930L1487 868L1660.5 909.5L1676 713.5L1853.29 502.074L1744.98 362L1774.5 171L1586 242L1399 203L1128.03 120.343L1197 300L1101 539.5Z" fill="white"/>
</g>
</g>
<defs>
<filter id="filter0_f_32_2" x="681" y="-175" width="1439" height="1409" filterUnits="userSpaceOnUse" color-interpolation-filters="sRGB">
<feFlood flood-opacity="0" result="BackgroundImageFix"/>
<feBlend mode="normal" in="SourceGraphic" in2="BackgroundImageFix" result="shape"/>
<feGaussianBlur stdDeviation="50" result="effect1_foregroundBlur_32_2"/>
</filter>
<clipPath id="clip0_32_2">
<rect width="1920" height="1080" fill="white"/>
</clipPath>
</defs>
</svg>
